<svg xmlns="http://www.w3.org/2000/svg" xmlns:xlink="http://www.w3.org/1999/xlink" width="400" height="400" viewBox="0 0 400 400"><defs><radialGradient id="gradient-9" cx="11.8%" cy="33.5%" r="860px">       <stop offset="0%" stop-color="rgba(240, 30, 92, 1)"/>       <stop offset="30.5%" stop-color="rgba(244, 49, 74, 1)"/>       <stop offset="56.1%" stop-color="rgba(249, 75, 37, 1)"/>       <stop offset="75.6%" stop-color="rgba(250, 88, 19, 1)"/>       <stop offset="100.2%" stop-color="rgba(253, 102, 2, 1)"/>     </radialGradient><radialGradient id="gradient-10" cx="50.4%" cy="50.5%" r="100%" fx="50.4%" fy="50.5%">       <stop offset="0%" stop-color="rgba(251, 32, 86, 1)"/>       <stop offset="90%" stop-color="rgba(135, 2, 35, 1)"/>     </radialGradient></defs>
<rect data-name="background" width="100%" height="100%" fill="#ffffff"/><g data-name="watermark" class="watermark-logodesign" stroke="#ffffff" transform="translate(10, 320) scale(1.5) rotate(-45)" style="opacity:0.040000010281801224;"><path fill="#000000" d="M22.92,19.2q3.04,1.68,4.8,4.7t1.76,6.78t-1.76,6.78t-4.8,4.7t-6.68,1.68t-6.7-1.68t-4.84-4.7t-1.78-6.78t1.78-6.78t4.84-4.7t6.7-1.68t6.68,1.68z M11.14,21.74q-2.26,1.3-3.54,3.62t-1.28,5.32t1.28,5.32t3.54,3.6t5.1,1.28t5.08-1.28t3.52-3.6t1.28-5.32t-1.28-5.32t-3.54-3.62t-5.06-1.3q-2.84,0-5.1,1.3z M21.4,24.76l-1.8,2.32q-0.72-0.56-1.4-0.78t-1.48-0.22q-1.44,0-2.3,1.1t-0.86,3.46q0,2.32,0.82,3.44t2.26,1.12q0.96,0,1.74-0.3t1.54-0.9l1.64,2.44q-2.24,2.04-5.2,2.04q-3.2,0-5.08-2.04t-1.88-5.8q0-2.4,0.9-4.16t2.48-2.7t3.54-0.94q2.92,0,5.08,1.92z M41.2,20.32l0,22.96l10.96,0l-0.64,4.72l-16.2,0l0-27.68l5.88,0z M71.92,29.14q2.68,2.98,2.68,8.26q0,3.36-1.22,5.9t-3.52,3.94t-5.42,1.4q-4.76,0-7.46-2.98t-2.7-8.26q0-3.36,1.22-5.9t3.52-3.94t5.46-1.4q4.76,0,7.44,2.98z M61.26,32.1q-1.06,1.7-1.06,5.3t1.06,5.3t3.18,1.7t3.18-1.7t1.06-5.3t-1.04-5.3t-3.16-1.7q-2.16,0-3.22,1.7z M97.88,27.96q-2.08,0.8-6.12,0.8q2,0.88,2.96,2.18t0.96,3.26q0,2.04-1.06,3.66t-3.04,2.54t-4.62,0.92q-1.4,0-2.48-0.28q-0.8,0.52-0.8,1.4q0,0.64,0.5,1.02t1.94,0.38l3.24,0q2.36,0,4.14,0.78t2.76,2.16t0.98,3.14q0,3.24-2.78,5.06t-8.02,1.82q-3.76,0-5.94-0.78t-3.06-2.26t-0.88-3.72l5.08,0q0,1.04,0.4,1.66t1.46,0.92t3.06,0.3q2.76,0,3.86-0.68t1.1-1.92q0-1.12-0.84-1.72t-2.48-0.6l-3.12,0q-3.16,0-4.72-1.18t-1.56-2.98q0-1.12,0.66-2.18t1.82-1.78q-1.96-1.08-2.86-2.54t-0.9-3.5q0-2.32,1.14-4.06t3.2-2.68t4.7-0.94q3.28,0.08,5.4-0.56t4.52-2z M84.14,30.98q-0.94,1.02-0.94,2.78q0,1.8,0.94,2.84t2.58,1.04q1.72,0,2.6-1t0.88-2.96q0-3.72-3.52-3.72q-1.6,0-2.54,1.02z M117.04,29.14q2.68,2.98,2.68,8.26q0,3.36-1.22,5.9t-3.52,3.94t-5.42,1.4q-4.76,0-7.46-2.98t-2.7-8.26q0-3.36,1.22-5.9t3.52-3.94t5.46-1.4q4.76,0,7.44,2.98z M106.38,32.1q-1.06,1.7-1.06,5.3t1.06,5.3t3.18,1.7t3.18-1.7t1.06-5.3t-1.04-5.3t-3.16-1.7q-2.16,0-3.22,1.7z M141.78,23.26q3.9,2.94,3.9,10.78q0,7.68-3.82,10.82t-9.78,3.14l-7.92,0l0-27.68l7.24,0q6.48,0,10.38,2.94z M130.04,24.64l0,19.04l2.4,0q3.4,0,5.26-2.1t1.86-7.54q0-3.76-0.94-5.84t-2.5-2.82t-3.8-0.74l-2.28,0z M167.84,39.12l-13.24,0q0.28,2.88,1.56,4.08t3.48,1.2q1.36,0,2.56-0.44t2.6-1.4l2.36,3.2q-3.56,2.88-8.04,2.88q-5,0-7.68-3t-2.68-8.12q0-3.24,1.14-5.82t3.32-4.06t5.18-1.48q4.52,0,7.04,2.84t2.52,7.92q0,0.4-0.12,2.2z M162.32,35.32q0-5.28-3.8-5.28q-1.76,0-2.74,1.3t-1.18,4.22l7.72,0l0-0.24z M186.8,28.72l-2.16,3.24q-2.68-1.68-5.28-1.68q-1.4,0-2.16,0.52t-0.76,1.4q0,0.64,0.34,1.08t1.28,0.84t2.82,0.96q3.36,0.92,5,2.46t1.64,4.22q0,2.12-1.22,3.68t-3.3,2.38t-4.64,0.82q-2.68,0-4.88-0.82t-3.76-2.26l2.8-3.12q2.68,2.08,5.68,2.08q1.6,0,2.54-0.62t0.94-1.7q0-0.84-0.36-1.32t-1.32-0.9t-3-0.98q-3.2-0.88-4.74-2.5t-1.54-4.02q0-1.8,1.04-3.24t2.94-2.26t4.42-0.82q4.48,0,7.68,2.56z M196.92,26.8l0,21.2l-5.68,0l0-21.2l5.68,0z M196.54,16.82q0.98,0.94,0.98,2.38t-0.98,2.38t-2.5,0.94t-2.48-0.94t-0.96-2.38t0.96-2.38t2.48-0.94t2.5,0.94z M221.48,27.96q-2.08,0.8-6.12,0.8q2,0.88,2.96,2.18t0.96,3.26q0,2.04-1.06,3.66t-3.04,2.54t-4.62,0.92q-1.4,0-2.48-0.28q-0.8,0.52-0.8,1.4q0,0.64,0.5,1.02t1.94,0.38l3.24,0q2.36,0,4.14,0.78t2.76,2.16t0.98,3.14q0,3.24-2.78,5.06t-8.02,1.82q-3.76,0-5.94-0.78t-3.06-2.26t-0.88-3.72l5.08,0q0,1.04,0.4,1.66t1.46,0.92t3.06,0.3q2.76,0,3.86-0.68t1.1-1.92q0-1.12-0.84-1.72t-2.48-0.6l-3.12,0q-3.16,0-4.72-1.18t-1.56-2.98q0-1.12,0.66-2.18t1.82-1.78q-1.96-1.08-2.86-2.54t-0.9-3.5q0-2.32,1.14-4.06t3.2-2.68t4.7-0.94q3.28,0.08,5.4-0.56t4.52-2z M207.74,30.98q-0.94,1.02-0.94,2.78q0,1.8,0.94,2.84t2.58,1.04q1.72,0,2.6-1t0.88-2.96q0-3.72-3.52-3.72q-1.6,0-2.54,1.02z M240.48,27.86q1.56,1.7,1.56,4.7l0,15.44l-5.68,0l0-14.48q0-1.72-0.58-2.42t-1.74-0.7q-1.2,0-2.18,0.74t-1.9,2.22l0,14.64l-5.68,0l0-21.2l4.92,0l0.44,2.68q1.32-1.64,2.9-2.48t3.58-0.84q2.8,0,4.36,1.7z M251.84,42.8q1,1,1,2.4t-1,2.42t-2.44,1.02q-1.4,0-2.4-1.02t-1-2.42t1-2.4t2.4-1q1.44,0,2.44,1z M271.8,48l-1.56-6.2l-8.68,0l-1.56,6.2l-6.12,0l8.52-27.68l7.16,0l8.48,27.68l-6.24,0z M262.68,37.44l6.44,0l-3.24-12.76z M286.48,20.32l0,27.68l-5.88,0l0-27.68l5.88,0z"/></g><g data-name="icon" fill="url(#gradient-10)" data="id:1304167" transform="translate(15.28951420248248,162.68833243250634) scale(0.009869945476465147)">
    <defs/><g><path class="fil0" d="M0 2383l0 3292c0,46 40,68 84,91 1032,551 2081,1193 3102,1778 90,27 143,-25 143,-112l-4 -3216c0,-108 -70,-210 -162,-263l-2858 -1657c-133,-86 -300,-143 -305,87zm983 2889c159,199 178,448 43,556 -136,109 -375,35 -534,-164 -159,-198 -178,-447 -42,-556 135,-108 374,-35 533,164zm0 -1069c159,199 178,448 43,557 -136,108 -375,35 -534,-164 -159,-199 -178,-448 -42,-556 136,-109 374,-35 533,163zm1 -1058c159,199 178,448 42,556 -136,109 -374,36 -533,-163 -159,-199 -179,-448 -43,-557 136,-108 374,-35 534,164zm1823 1002c159,199 178,448 43,556 -136,109 -375,36 -534,-163 -159,-199 -178,-448 -42,-557 135,-108 374,-35 533,164zm0 1058c159,199 178,448 43,557 -136,108 -375,35 -534,-164 -159,-199 -178,-448 -42,-556 135,-109 374,-35 533,163zm0 1069c159,199 178,448 42,556 -135,109 -374,35 -533,-163 -159,-199 -178,-448 -42,-557 135,-108 374,-35 533,164z"/><path class="fil0 str0" d="M3661 3967c-116,65 -116,204 -116,322l0 3083c0,59 15,276 227,150l2896 -1721c138,-81 149,-328 149,-388l0 -3083c0,-177 -122,-163 -190,-124 -988,587 -1963,1199 -2966,1761zm903 749c-122,224 -344,338 -496,255 -153,-83 -178,-332 -56,-555 121,-224 344,-338 496,-255 153,83 178,331 56,555zm1907 -1253c-122,224 -344,338 -497,255 -152,-83 -177,-331 -56,-555 122,-224 344,-338 497,-255 152,83 177,332 56,555zm-908 1594c-122,224 -344,338 -497,255 -152,-83 -177,-332 -56,-555 122,-224 344,-338 497,-255 152,83 177,331 56,555zm887 383c-122,223 -344,337 -497,254 -152,-82 -177,-331 -55,-555 121,-223 344,-337 496,-254 153,83 177,331 56,555zm-1921 1127c-121,224 -344,338 -496,255 -153,-83 -178,-332 -56,-555 122,-224 344,-338 496,-255 153,83 178,331 56,555z"/><path class="fil0" d="M3823 146l2643 1546c239,151 241,302 2,439l-2650 1528c-378,246 -654,83 -783,7l-2649 -1551c-145,-84 -292,-229 -64,-361l2656 -1552c455,-282 531,-238 845,-56zm1896 1452c-234,-160 -616,-160 -850,0 -231,157 -231,410 0,567 234,160 616,160 850,0 231,-157 231,-410 0,-567zm-1860 1005c-234,-160 -616,-160 -850,0 -231,158 -231,410 0,568 234,159 616,159 850,0 231,-158 231,-410 0,-568zm29 -1974c-234,-160 -616,-160 -850,0 -231,157 -231,410 0,567 234,160 616,160 850,0 231,-157 231,-410 0,-567zm-1888 969c-235,-160 -616,-160 -851,0 -231,157 -231,410 0,567 235,160 616,160 851,0 231,-157 231,-410 0,-567z"/></g>
    </g><g data-name="business_name" fill="#9c0202" data="id:294" transform="translate(104.67824338476443,149.3429415916284) scale(1.4473445653904837)"><path d="M2,48l0-25l11.2,0q6.76,0,9.28,2.88t2.52,9.62t-2.52,9.62t-9.28,2.88l-11.2,0z M13.32,29.4l-3.32,0l0,12.2l3.32,0q1.64,0,2.38-0.38t0.74-1.74l0-7.96q0-1.36-0.74-1.74t-2.38-0.38z M31.8,28l2,2q3.72-2.6,8-2.6q2.8,0,4.4,1.22t1.6,3.38l0,16l-8,0l0-14l-1.24,0q-1.36,0-2.06,0.3t-0.7,1.22l0,12.48l-8,0l0-20l4,0z M51.6,48l0-25l11.2,0q6.76,0,9.28,2.88t2.52,9.62t-2.52,9.62t-9.28,2.88l-11.2,0z M62.92,29.4l-3.32,0l0,12.2l3.32,0q1.64,0,2.38-0.38t0.74-1.74l0-7.96q0-1.36-0.74-1.74t-2.38-0.38z  M98.2,38.72l-6.8,0l0,9.28l-8,0l0-25l16.4,0l-1,6.4l-7.4,0l0,3.36l6.8,0l0,5.96z M101.4,38q0-5.36,2.5-7.98t8.1-2.62t8.1,2.62t2.5,7.98t-2.5,7.98t-8.1,2.62t-8.1-2.62t-2.5-7.98z M110,34.92l0,7.84l1.24,0q1.44,0,2.1-0.3t0.66-1.38l0-7.84l-1.24,0q-1.44,0-2.1,0.3t-0.66,1.38z M125.8,28l4,0l2.2,2.24q2.36-2.16,5.92-2.84l0.48,7.56q-0.96,0.04-2.5,0.48t-2.1,1.12l0,11.44l-8,0l0-20z  M152.76,48l-8.44,0l6.48-25l12.36,0l6.48,25l-8.44,0l-0.92-3.96l-6.6,0z M156.76,30.68l-1.64,7l3.68,0l-1.6-7l-0.44,0z M179.16,21.4l0,20.88q1.28,0.24,1.96,0.28l-0.36,5.88q-5.12,0-6.76-0.6q-2.04-0.76-2.52-1.92q-0.32-0.72-0.32-1.68l0-22.24z M191.52,21.4l0,20.88q1.28,0.24,1.96,0.28l-0.36,5.88q-5.12,0-6.76-0.6q-2.04-0.76-2.52-1.92q-0.32-0.72-0.32-1.68l0-22.24z"/></g></svg>